<svg width="0" height="0" class="hidden">
  <symbol viewBox="0 0 170 90" fill="none" xmlns="http://www.w3.org/2000/svg" id="Client_1">
    <rect x=".5" y=".5" width="169" height="89" rx="3.5" stroke="#AFB1B8"></rect>
    <path d="M69 20l7.308 6.918h20.384v19.298L104 53.134V20H69z" fill="#AFB1B8"></path>
    <path d="M63 26.627v32.187h34V46.02L76.523 26.634 63 26.626zm27.523 27.479H68.38V32.457h1.565V52.64h20.578v1.465zM72.791 64.784l.818-1.685h.684L73.1 65.345v1.309h-.62v-1.309L71.287 63.1h.686l.818 1.685zm3.51 1.042h-1.376l-.288.828h-.642l1.342-3.555h.555l1.345 3.555h-.645l-.29-.828zm-1.203-.498h1.03l-.515-1.475-.515 1.475zm3.638.366c0-.164.045-.315.134-.451.09-.139.266-.302.53-.491a2.265 2.265 0 0 1-.29-.444.877.877 0 0 1-.081-.354c0-.279.084-.498.254-.66.169-.162.397-.244.683-.244.26 0 .47.077.635.23.166.151.25.34.25.564a.785.785 0 0 1-.113.41 1.34 1.34 0 0 1-.369.371l-.242.176.687.81c.099-.195.148-.412.148-.651h.516c0 .437-.103.796-.308 1.076l.522.618h-.688l-.2-.237a1.47 1.47 0 0 1-.909.286c-.351 0-.633-.093-.844-.279a.932.932 0 0 1-.315-.73zm1.177.535c.2 0 .387-.067.561-.2l-.776-.916-.076.054c-.195.148-.293.317-.293.508 0 .164.053.298.159.4a.585.585 0 0 0 .425.154zm-.328-2.29c0 .137.084.308.252.515l.27-.185.077-.062a.44.44 0 0 0 .151-.344.311.311 0 0 0-.105-.236.37.37 0 0 0-.266-.1.348.348 0 0 0-.276.117.432.432 0 0 0-.103.295zm6.458 1.558c-.036.379-.176.675-.42.888-.244.212-.569.318-.974.318-.283 0-.533-.067-.75-.2a1.332 1.332 0 0 1-.498-.574 2.065 2.065 0 0 1-.183-.862v-.332c0-.335.06-.63.178-.886.12-.256.29-.453.51-.591a1.43 1.43 0 0 1 .772-.208c.392 0 .708.107.948.32.239.213.378.514.417.903h-.615c-.03-.255-.104-.439-.225-.551-.119-.114-.294-.171-.525-.171-.268 0-.475.098-.62.295-.143.196-.216.483-.22.862v.315c0 .384.069.677.206.879.138.202.34.303.605.303.242 0 .425-.055.547-.164.122-.109.2-.29.232-.544h.615zm3.391-.528c0 .349-.06.655-.18.918a1.384 1.384 0 0 1-.518.606c-.223.14-.48.21-.772.21-.288 0-.545-.07-.771-.21a1.405 1.405 0 0 1-.523-.603 2.124 2.124 0 0 1-.185-.901v-.2c0-.347.06-.653.183-.918.124-.266.297-.468.52-.608.225-.142.482-.213.772-.213.29 0 .546.07.769.21.224.139.397.339.52.6.122.261.184.565.185.912v.197zm-.618-.185c0-.394-.075-.696-.224-.906a.728.728 0 0 0-.632-.315.731.731 0 0 0-.628.315c-.15.208-.226.504-.23.886v.205c0 .39.076.693.228.906.153.213.364.32.634.32.274 0 .484-.104.63-.313.148-.208.222-.512.222-.913v-.185z"
      fill="#AFB1B8"></path>
  </symbol>
  <symbol viewBox="0 0 170 90" fill="none" xmlns="http://www.w3.org/2000/svg" id="Client_2">
    <rect x=".5" y=".5" width="169" height="89" rx="3.5" stroke="#AFB1B8"></rect>
    <path d="M81.977 21.934h.136c.254 0 .527.026.797.049a22.64 22.64 0 0 1 3.542.534v-2.863a21.125 21.125 0 0 0-3.656-.583A29.224 29.224 0 0 0 81.32 19h-.427c-2.475.01-4.94.327-7.337.946-2.73.68-5.35 1.747-7.784 3.166v28.397a31.633 31.633 0 0 1 7.42-2.892 32.36 32.36 0 0 1 6.228-.956h.084a23.25 23.25 0 0 1 1.065-.03v-2.91a34.329 34.329 0 0 0-8.095 1.076c-.98.255-1.925.53-2.813.834l-1.012.344V24.833l.432-.208a28.276 28.276 0 0 1 10.516-2.683.63.63 0 0 1 .091 0c.403-.02.808-.03 1.205-.03h.455c.21.005.42.01.63.023z"
      fill="#AFB1B8"></path>
    <path d="M89.111 24.933a25.925 25.925 0 0 1-4.235-.344 22.97 22.97 0 0 1-1.323-.267v28.072c1.82.45 3.69.67 5.566.656a29.943 29.943 0 0 0 7.336-.944 29.806 29.806 0 0 0 7.786-3.166V21.05a31.765 31.765 0 0 1-7.417 2.893c-2.52.648-5.111.98-7.713.99zm11.224.485l1.012-.34v22.148l-.432.209a27.772 27.772 0 0 1-5.174 1.859c-2.163.56-4.386.847-6.62.857-.668 0-1.33-.028-1.973-.084l-.693-.061V27.228l.807.054a28.38 28.38 0 0 0 1.854.056 34.263 34.263 0 0 0 8.406-1.078 44.86 44.86 0 0 0 2.813-.842zM67.737 61.212a1.492 1.492 0 0 0-1.125-.455 1.672 1.672 0 0 0-.65.122 1.464 1.464 0 0 0-.832.842c-.08.2-.12.413-.117.628v3.794c-.01.267.042.533.149.778.09.195.219.368.38.509.151.127.33.22.52.27.185.051.376.078.567.078.212.002.42-.043.612-.132a1.599 1.599 0 0 0 .96-1.465v-.424h-.992v.338a.881.881 0 0 1-.059.338.609.609 0 0 1-.144.214.697.697 0 0 1-.415.145.503.503 0 0 1-.465-.204.898.898 0 0 1-.132-.508v-3.538c-.006-.196.036-.39.122-.567a.507.507 0 0 1 .485-.229.527.527 0 0 1 .443.214.806.806 0 0 1 .165.509v.328h.981v-.387a1.786 1.786 0 0 0-.121-.664 1.562 1.562 0 0 0-.332-.534zm5.892-.042a1.765 1.765 0 0 0-1.129-.418c-.202 0-.402.037-.591.107A1.558 1.558 0 0 0 71 61.7c-.1.231-.15.482-.145.735v3.638c-.007.256.043.51.144.746.09.195.221.369.385.508.151.14.33.25.523.32.19.07.39.106.592.107a1.715 1.715 0 0 0 1.129-.427c.158-.142.285-.315.374-.508.102-.235.151-.49.144-.746v-3.639a1.771 1.771 0 0 0-.144-.734 1.644 1.644 0 0 0-.374-.532zm-.463 4.904a.654.654 0 0 1-.198.527.726.726 0 0 1-.933 0 .653.653 0 0 1-.197-.527v-3.639a.656.656 0 0 1 .197-.526.727.727 0 0 1 .933 0 .651.651 0 0 1 .198.526v3.64zm8.202 1.626v-6.89h-.954l-1.252 3.647h-.018l-1.262-3.646h-.944v6.888h.984v-4.19h.018l.964 2.962h.49l.972-2.962h.017v4.19h.985zm5.59-6.406c-.151-.17-.343-.3-.556-.377a2.184 2.184 0 0 0-.714-.107h-1.462v6.89h.982v-2.691h.506c.306.014.61-.051.885-.188a1.43 1.43 0 0 0 .539-.527c.113-.183.19-.387.225-.6a4.9 4.9 0 0 0 .053-.783c.01-.33-.023-.662-.096-.984a1.465 1.465 0 0 0-.362-.633zm-.506 2.1a.868.868 0 0 1-.09.359.552.552 0 0 1-.254.241 1.006 1.006 0 0 1-.463.087h-.447v-2.342h.505a.942.942 0 0 1 .443.086.556.556 0 0 1 .23.254 1 1 0 0 1 .086.384v.458c0 .16.01.326 0 .473h-.01zm5.155-2.584h-.804l-1.518 6.89h.982l.288-1.48h1.338l.289 1.48h.981l-1.556-6.89zm-.905 4.471l.483-2.497h.018l.48 2.497h-.981zm7.248-.321h-.018l-1.483-4.15h-.943v6.89h.981v-4.143h.02l1.5 4.142h.924v-6.888h-.981v4.15zm5.998-4.15l-.79 2.74h-.02l-.789-2.74h-1.04l1.348 3.978v2.911h.982v-2.911l1.348-3.977h-1.039zM65 69.644h.473v1.328h.321v-1.328h.47v-.272H65v.272zm3.977-.272l-.62 1.6h.341l.132-.364h.638l.136.364h.35l-.636-1.6h-.341zm-.05.967l.217-.593.217.593h-.435zm3.981.043h.37v.206a.613.613 0 0 1-.38.135.404.404 0 0 1-.34-.153.67.67 0 0 1-.118-.417c0-.356.154-.534.46-.534a.337.337 0 0 1 .362.255l.316-.061c-.068-.313-.293-.47-.678-.47a.804.804 0 0 0-.559.205.78.78 0 0 0-.23.615.872.872 0 0 0 .205.6.776.776 0 0 0 .607.234.96.96 0 0 0 .678-.254v-.63h-.693v.27zm4.014-1.01H76.6v1.6h1.12V70.7h-.797v-1.328zm3.395 0h-.323v1.6h.323v-1.6zm3.319 1.068l-.655-1.068h-.313v1.6h.3v-1.045l.643 1.045h.321v-1.6h-.296v1.069zm3.001-.173h.797v-.272h-.797v-.35h.857v-.273h-1.181v1.6h1.214V70.7h-.89v-.433zm7.275-.264h-.63v-.63h-.321v1.599h.321v-.7h.63v.7h.321v-1.6h-.32v.631zm3.018.264h.8v-.272h-.8v-.35h.86v-.273h-1.18v1.6h1.212V70.7h-.89v-.433zm4.093.001c.279-.044.42-.191.42-.445a.38.38 0 0 0-.156-.356.905.905 0 0 0-.468-.094h-.678v1.599h.321v-.669h.063a.431.431 0 0 1 .2.036.336.336 0 0 1 .114.117l.349.508h.384l-.194-.312a1.113 1.113 0 0 0-.355-.384zm-.323-.222h-.238v-.401h.253a.838.838 0 0 1 .326.038.2.2 0 0 1 .054.075.22.22 0 0 1 .017.091.215.215 0 0 1-.086.16.912.912 0 0 1-.326.037zm3.409.221h.797v-.272h-.797v-.35h.861v-.273h-1.184v1.6H105V70.7h-.891v-.433z"
      fill="#AFB1B8"></path>
  </symbol>
  <symbol viewBox="0 0 170 90" fill="none" xmlns="http://www.w3.org/2000/svg" id="Client_3">
    <rect x=".5" y=".5" width="169" height="89" rx="3.5" stroke="#AFB1B8"></rect>
    <path d="M71.346 65.795a.117.117 0 0 1 .08.034l.205.216c-.16.174-.357.314-.579.409a2.07 2.07 0 0 1-.82.147 2.01 2.01 0 0 1-.772-.137 1.671 1.671 0 0 1-.957-.986 2.163 2.163 0 0 1-.13-.767 2.016 2.016 0 0 1 .14-.77c.09-.222.226-.425.4-.597.175-.17.385-.302.617-.39.253-.094.523-.14.794-.137.253-.006.504.036.739.125.203.084.39.2.553.345l-.173.23a.173.173 0 0 1-.043.042.11.11 0 0 1-.07.018.157.157 0 0 1-.074-.025l-.093-.061-.129-.079a1.401 1.401 0 0 0-.406-.137 1.642 1.642 0 0 0-.306-.024 1.533 1.533 0 0 0-.571.102 1.29 1.29 0 0 0-.448.29c-.128.133-.227.29-.29.46a1.69 1.69 0 0 0-.106.608c-.003.21.033.42.106.618.063.169.16.325.285.458.118.125.264.222.427.284.168.067.348.1.53.099.105.001.21-.005.314-.02.17-.02.332-.076.476-.164.072-.046.14-.096.203-.152a.153.153 0 0 1 .098-.04zm5.941-1.085c.003.26-.044.52-.139.763a1.655 1.655 0 0 1-.387.592 1.754 1.754 0 0 1-.608.388 2.296 2.296 0 0 1-1.564 0 1.778 1.778 0 0 1-.605-.39 1.74 1.74 0 0 1-.39-.597 2.166 2.166 0 0 1 0-1.527 1.78 1.78 0 0 1 .39-.6 1.78 1.78 0 0 1 .605-.375 2.258 2.258 0 0 1 1.564 0c.228.088.435.22.607.39.17.17.301.37.388.59.096.245.143.505.14.767zm-.54 0a1.759 1.759 0 0 0-.098-.612 1.208 1.208 0 0 0-.71-.747 1.658 1.658 0 0 0-1.137 0 1.207 1.207 0 0 0-.712.747c-.13.4-.13.827 0 1.225a1.203 1.203 0 0 0 .712.745c.367.131.77.131 1.137 0 .166-.063.314-.161.435-.286.123-.134.217-.29.275-.459.07-.197.102-.404.098-.612zm4.593.643l.055.137a2.56 2.56 0 0 1 .059-.137 1.32 1.32 0 0 1 .067-.135l1.314-2.276c.026-.04.049-.064.075-.071a.322.322 0 0 1 .108-.012h.388v3.702h-.46v-2.836a1.085 1.085 0 0 1 0-.128l-1.322 2.309a.202.202 0 0 1-.078.084.216.216 0 0 1-.113.03h-.074a.21.21 0 0 1-.113-.03.2.2 0 0 1-.078-.084l-1.36-2.324v2.973h-.445V62.86h.388a.322.322 0 0 1 .108.012.15.15 0 0 1 .072.071l1.343 2.279a.805.805 0 0 1 .067.132zm4.947-.183v1.386h-.515V62.86h1.148a2.25 2.25 0 0 1 .64.08c.167.045.321.124.453.23.114.1.202.225.257.363.06.151.09.312.088.473.002.163-.03.323-.096.473a1.012 1.012 0 0 1-.278.37 1.27 1.27 0 0 1-.455.245c-.2.061-.41.09-.62.086l-.622-.01zm0-.398h.622c.136.002.27-.017.399-.056a.843.843 0 0 0 .288-.16.651.651 0 0 0 .175-.244.768.768 0 0 0 .062-.312.677.677 0 0 0-.052-.3.707.707 0 0 0-.18-.253 1.033 1.033 0 0 0-.692-.199h-.622v1.524zm6.913 1.789h-.406a.181.181 0 0 1-.113-.034.226.226 0 0 1-.067-.086l-.35-.894h-1.756l-.363.894a.2.2 0 0 1-.064.083.18.18 0 0 1-.116.037h-.406l1.543-3.703h.535l1.564 3.703zm-2.546-1.375h1.451l-.612-1.507a2.614 2.614 0 0 1-.116-.348l-.06.194a1.842 1.842 0 0 1-.056.157l-.607 1.504zm4.769-2.311c.031.017.058.04.078.067l2.25 2.79v-2.874h.46v3.703h-.257a.23.23 0 0 1-.105-.022.283.283 0 0 1-.082-.069l-2.248-2.788c.002.042.002.085 0 .127v2.753h-.46v-3.704h.272c.032 0 .063.005.092.017zm6.58 2.213v1.47h-.515v-1.47l-1.422-2.23h.46a.174.174 0 0 1 .111.032.315.315 0 0 1 .069.084l.89 1.438c.036.061.067.118.093.172.026.053.046.105.064.156l.067-.159c.025-.058.054-.115.088-.169l.877-1.448a.362.362 0 0 1 .067-.079.16.16 0 0 1 .11-.036h.466l-1.425 2.24zm-20.917-8.444c.224.027.45.05.679.069 3.47-1.48 6.407-3.9 8.441-6.96 2.034-3.06 3.077-6.624 2.997-10.246l-3.825-3.644a20.22 20.22 0 0 1-1.05 11.512c-1.465 3.67-3.972 6.88-7.242 9.27z"
      fill="#AFB1B8"></path>
    <path d="M79.72 56.475l.103.02c3.494-2.382 6.158-5.707 7.648-9.546a19.54 19.54 0 0 0 .706-11.99l-5.447-5.19a24.082 24.082 0 0 1 2.557 13.768c-.532 4.728-2.463 9.214-5.567 12.938zm18.476-12.689c-.926 3.98-3.174 7.568-6.41 10.234a20.213 20.213 0 0 1-3.045 2.082 18.187 18.187 0 0 0 7.08-3.813 17.079 17.079 0 0 0 4.584-6.4l-2.21-2.103z"
      fill="#AFB1B8"></path>
    <path d="M97.33 43.2l-3.147-2.997a18.475 18.475 0 0 1-2.952 9.67c-1.873 2.916-4.532 5.299-7.699 6.903h.016c.705 0 1.41-.04 2.111-.12a19.338 19.338 0 0 0 7.611-5.33 18.093 18.093 0 0 0 4.06-8.126zM80.176 27.58L76.423 24c-3.355 1.235-6.24 3.406-8.278 6.23-2.038 2.823-3.135 6.167-3.145 9.593.013 3.787 1.35 7.46 3.801 10.441 2.451 2.98 5.875 5.097 9.731 6.015 3.442-3.995 5.457-8.932 5.753-14.093.295-5.161-1.144-10.277-4.11-14.606zM106 42.649c-.013-4.492-1.892-8.797-5.227-11.973-3.334-3.177-7.852-4.967-12.567-4.98a18.383 18.383 0 0 0-6.371 1.13l22.977 21.89A16.054 16.054 0 0 0 106 42.65z"
      fill="#AFB1B8"></path>
  </symbol>
  <symbol viewBox="0 0 170 90" fill="none" xmlns="http://www.w3.org/2000/svg" id="Client_4">
    <rect x=".5" y=".5" width="169" height="89" rx="3.5" stroke="#AFB1B8"></rect>
    <path d="M57.402 36.83H57.4c-2.263 0-4.097 1.788-4.097 3.992v.003c0 2.204 1.834 3.992 4.097 3.992h.002c2.262 0 4.096-1.788 4.096-3.992v-.003c0-2.204-1.834-3.991-4.096-3.991zm30.235-1.276c-.007-3.062-1.258-5.997-3.48-8.162-2.22-2.165-5.232-3.385-8.374-3.392-3.143.006-6.156 1.225-8.379 3.39-2.223 2.166-3.474 5.102-3.48 8.164V52.44s23.71-2.573 23.713-16.883v-.003zM45 57.982a7.96 7.96 0 0 0 2.422 5.68 8.384 8.384 0 0 0 5.827 2.362 8.384 8.384 0 0 0 5.826-2.361 7.96 7.96 0 0 0 2.423-5.678v-11.75S45 48.029 45 57.983zm8.25 2.105a2.2 2.2 0 0 1-1.2-.354 2.117 2.117 0 0 1-.796-.945 2.056 2.056 0 0 1-.123-1.216 2.09 2.09 0 0 1 .59-1.078 2.179 2.179 0 0 1 1.107-.576 2.2 2.2 0 0 1 1.248.12c.395.159.732.429.97.775a2.068 2.068 0 0 1 .201 1.977 2.1 2.1 0 0 1-.467.686c-.201.196-.44.352-.702.458a2.21 2.21 0 0 1-.829.161v-.008zm16.84-1.306h-1.688v1.743h-.88V56.26H70.3v.712h-1.898v1.101h1.687v.71zm4.224-.293c0 .42-.074.788-.223 1.105-.148.316-.361.56-.638.732a1.755 1.755 0 0 1-.95.258c-.353 0-.668-.085-.946-.255a1.695 1.695 0 0 1-.644-.726 2.511 2.511 0 0 1-.232-1.09V58.3c0-.42.075-.79.226-1.108.152-.32.366-.565.641-.735.278-.172.594-.258.95-.258.355 0 .67.086.946.258.277.17.491.415.641.735.153.319.229.687.229 1.105v.19zm-.89-.193c0-.447-.08-.787-.24-1.02a.783.783 0 0 0-.686-.348.782.782 0 0 0-.683.346c-.16.228-.241.564-.243 1.007v.208c0 .436.08.774.24 1.014.16.24.39.36.691.36a.775.775 0 0 0 .68-.345c.158-.233.238-.57.24-1.014v-.208zm3.74 1.11a.447.447 0 0 0-.175-.38c-.117-.09-.328-.184-.633-.282a4.565 4.565 0 0 1-.724-.293c-.484-.262-.726-.614-.726-1.057 0-.23.064-.436.193-.616.131-.181.317-.323.56-.425.244-.101.517-.152.82-.152.305 0 .576.056.814.167.239.11.423.265.554.466.133.201.2.43.2.686h-.88c0-.196-.061-.347-.184-.454-.123-.11-.296-.165-.519-.165-.215 0-.382.046-.5.138a.426.426 0 0 0-.18.358c0 .138.07.254.209.348.14.094.346.182.618.264.5.15.864.337 1.093.56.228.222.342.5.342.831 0 .37-.14.66-.419.87-.279.21-.655.314-1.127.314-.329 0-.627-.06-.897-.179a1.438 1.438 0 0 1-.618-.495 1.27 1.27 0 0 1-.211-.726h.882c0 .47.281.706.843.706.21 0 .373-.042.49-.126a.418.418 0 0 0 .176-.358zm4.691-2.434h-1.307v3.553h-.879v-3.553H78.38v-.712h3.475v.712zm3.07 1.705h-1.687v1.142h1.98v.706h-2.86V56.26h2.854v.712h-1.974v1.016h1.687v.689zm2.388.287h-.7v1.561h-.88V56.26h1.586c.504 0 .892.112 1.166.337.273.224.41.542.41.952 0 .29-.063.534-.19.73a1.282 1.282 0 0 1-.572.462l.923 1.743v.041h-.943l-.8-1.561zm-.7-.712h.709c.22 0 .391-.056.513-.167a.607.607 0 0 0 .181-.466c0-.201-.058-.36-.173-.474-.113-.116-.288-.173-.524-.173h-.706v1.28zm5.326.77v1.503h-.879V56.26h1.664c.32 0 .602.058.844.176.244.117.431.284.562.5.131.215.197.46.197.736 0 .418-.144.748-.431.99-.285.24-.68.36-1.186.36h-.771zm0-.711h.785c.233 0 .41-.055.53-.165.123-.109.185-.265.185-.468a.704.704 0 0 0-.185-.507c-.123-.129-.293-.195-.51-.2h-.805v1.34zm5.56.366h-1.687v1.142h1.98v.706h-2.859V56.26h2.854v.712h-1.975v1.016H97.5v.689zm4.079-1.705h-1.307v3.553h-.879v-3.553h-1.289v-.712h3.475v.712zm3.07 1.705h-1.688v1.142h1.981v.706h-2.859V56.26h2.853v.712h-1.975v1.016h1.688v.689zm2.388.287h-.701v1.561h-.878V56.26h1.585c.503 0 .892.112 1.166.337.273.224.41.542.41.952 0 .29-.064.534-.191.73a1.28 1.28 0 0 1-.571.462l.923 1.743v.041h-.944l-.799-1.561zm-.701-.712h.709c.221 0 .392-.056.513-.167a.607.607 0 0 0 .182-.466c0-.201-.058-.36-.173-.474-.113-.116-.288-.173-.524-.173h-.707v1.28zm5.165 1.154a.447.447 0 0 0-.175-.38c-.117-.09-.328-.184-.633-.282a4.566 4.566 0 0 1-.724-.293c-.484-.262-.726-.614-.726-1.057 0-.23.064-.436.193-.616.131-.181.317-.323.56-.425.244-.101.517-.152.82-.152a1.9 1.9 0 0 1 .814.167c.239.11.423.265.554.466.133.201.199.43.199.686h-.879c0-.196-.061-.347-.184-.454-.123-.11-.296-.165-.519-.165-.215 0-.382.046-.501.138a.425.425 0 0 0-.178.358c0 .138.069.254.208.348.14.094.346.182.618.264.5.15.864.337 1.093.56.228.222.342.5.342.831 0 .37-.139.66-.419.87-.279.21-.655.314-1.128.314a2.19 2.19 0 0 1-.896-.179 1.432 1.432 0 0 1-.618-.495 1.268 1.268 0 0 1-.211-.726h.882c0 .47.281.706.843.706.209 0 .373-.042.49-.126a.418.418 0 0 0 .175-.358z"
      fill="#AFB1B8"></path>
  </symbol>
  <symbol viewBox="0 0 170 90" fill="none" xmlns="http://www.w3.org/2000/svg" id="Client_5">
    <rect x=".5" y=".5" width="169" height="89" rx="3.5" stroke="#AFB1B8"></rect>
    <path d="M60.488 61.278c.23.285.352.643.346 1.01a1.604 1.604 0 0 1-.537 1.277c-.446.339-1 .504-1.558.466H56v-6.405h2.683a2.284 2.284 0 0 1 1.487.426 1.463 1.463 0 0 1 .52 1.198c.016.353-.095.7-.311.98a1.46 1.46 0 0 1-.817.5c.364.067.692.26.926.548zm-3.213-.967h1.147c.26.02.519-.056.729-.213a.761.761 0 0 0 .246-.626.787.787 0 0 0-.243-.625 1.106 1.106 0 0 0-.751-.216h-1.128v1.68zm1.988 2.456a.796.796 0 0 0 .271-.65.81.81 0 0 0-.277-.658 1.18 1.18 0 0 0-.78-.231h-1.202v1.761h1.218c.274.016.546-.062.77-.222zm6.709 1.264l-1.492-2.503h-.561v2.503h-1.284v-6.405h2.43a2.39 2.39 0 0 1 1.693.545 2.047 2.047 0 0 1 .18 2.65c-.3.345-.709.575-1.159.65l1.59 2.56h-1.397zm-2.053-3.376h1.05c.73 0 1.094-.323 1.094-.97a.956.956 0 0 0-.268-.72 1.135 1.135 0 0 0-.826-.26h-1.063l.013 1.95zm9.071 2.087h-2.558l-.452 1.29h-1.346l2.35-6.334h1.455l2.34 6.333h-1.346l-.443-1.289zm-.342-.97l-.935-2.703-.935 2.703h1.87zm9.128 2.259H80.5l-2.857-4.355v4.355h-1.272v-6.405h1.272l2.857 4.38v-4.38h1.275v6.405zm7.274-1.533a2.757 2.757 0 0 1-1.153 1.13c-.555.281-1.17.42-1.792.403h-2.27v-6.405h2.27a3.816 3.816 0 0 1 1.792.395c.487.246.89.636 1.153 1.117a3.735 3.735 0 0 1 0 3.36zm-1.459-.153a2.352 2.352 0 0 0 0-3.057 2.21 2.21 0 0 0-1.595-.545h-.885v4.146h.885a2.21 2.21 0 0 0 1.595-.544zM73.789 22S90.24 28.236 89.89 37.26v15.263s-16.439-6.24-16.096-15.263L73.789 22zm30.758 26.95A22.486 22.486 0 0 1 115 45.082v-4.778a21.468 21.468 0 0 0-10.453 8.646z"
      fill="#AFB1B8"></path>
    <path d="M102.681 50.389A22.383 22.383 0 0 1 115 39.303V25.536s-23.43 8.883-22.934 21.733V69s1.044-.397 2.687-1.142c0-.695 0-1.395.075-2.1a22.605 22.605 0 0 1 7.853-15.369z" fill="#AFB1B8"></path>
    <path d="M100.453 58.462c.123-1.507.397-2.998.819-4.45a21.042 21.042 0 0 0-4.961 13.126 67.927 67.927 0 0 0 4.506-2.384 22.554 22.554 0 0 1-.364-6.292zm.932.078a21.593 21.593 0 0 0 .289 5.698c6.402-3.846 13.594-9.788 13.317-16.968v-.626a20.971 20.971 0 0 0-12.179 5.713 21.479 21.479 0 0 0-1.427 6.183z"
      fill="#AFB1B8"></path>
  </symbol>
  <symbol viewBox="0 0 170 90" fill="none" xmlns="http://www.w3.org/2000/svg" id="Client_6">
    <rect x=".5" y=".5" width="169" height="89" rx="3.5" stroke="#AFB1B8"></rect>
    <path d="M85.74 43.353a3.259 3.259 0 0 1-.57-2.057v-2.983c0-.914.189-1.609.567-2.084.378-.475 1.028-.712 1.949-.71.865 0 1.48.202 1.843.607.396.516.589 1.147.544 1.784v.7h-1.547v-.71a3.961 3.961 0 0 0-.045-.694.69.69 0 0 0-.221-.413.836.836 0 0 0-.561-.16.886.886 0 0 0-.59.17.81.81 0 0 0-.256.455c-.045.243-.065.49-.061.737v3.62a1.99 1.99 0 0 0 .198 1.016.734.734 0 0 0 .31.246.78.78 0 0 0 .399.058.788.788 0 0 0 .548-.164.748.748 0 0 0 .23-.44c.037-.24.053-.483.048-.725v-.735h1.548v.67a2.914 2.914 0 0 1-.535 1.876c-.355.443-.961.664-1.852.664-.891 0-1.564-.236-1.946-.728zm6.446.031c-.391-.465-.587-1.141-.587-2.036V38.21c0-.886.196-1.556.587-2.011.39-.455 1.044-.682 1.961-.68.91 0 1.56.227 1.952.68.39.455.59 1.125.59 2.011v3.138c0 .886-.2 1.565-.597 2.033-.397.467-1.044.7-1.945.7-.9 0-1.567-.236-1.961-.697zm2.682-.753c.14-.29.204-.61.186-.928V37.86a1.843 1.843 0 0 0-.183-.91.738.738 0 0 0-.316-.25.784.784 0 0 0-.408-.053.794.794 0 0 0-.41.054.75.75 0 0 0-.317.25 1.795 1.795 0 0 0-.186.91v3.859c-.02.32.044.638.186.928a.96.96 0 0 0 .326.23 1.008 1.008 0 0 0 .796 0 .96.96 0 0 0 .326-.23v-.018zm3.682-7.021h1.667l1.253 5.79 1.282-5.79h1.622l.163 8.356h-1.198l-.128-5.807-1.238 5.807h-.961l-1.282-5.828-.119 5.828H98.4l.15-8.355zm7.856 0h2.596c1.496 0 2.243.791 2.243 2.373 0 1.515-.787 2.271-2.362 2.27h-.884v3.713h-1.603l.01-8.355zm2.218 3.571a1.136 1.136 0 0 0 .881-.264 1.45 1.45 0 0 0 .231-.943 2.85 2.85 0 0 0-.077-.758.635.635 0 0 0-.118-.23.676.676 0 0 0-.202-.168 1.532 1.532 0 0 0-.715-.133h-.622v2.496h.622zm4.932-3.571h1.721l1.766 8.356h-1.494l-.349-1.927h-1.535l-.359 1.927h-1.516l1.766-8.355zm1.471 5.462l-.599-3.508-.6 3.508h1.199zm3.442-5.462h1.122l2.147 4.767V35.61h1.33v8.355h-1.067l-2.16-4.976v4.976h-1.375l.003-8.355zm7.715 5.17l-1.786-5.158h1.504l1.089 3.313 1.023-3.313h1.471l-1.763 5.158v3.186h-1.538V40.78zm-37.969 6.839v.437h-1.308v3.395h-.548v-3.395h-1.314v-.437h3.17zm4.099 3.832h-.423a.177.177 0 0 1-.119-.036.196.196 0 0 1-.07-.088l-.378-.91H89.51l-.378.91a.258.258 0 0 1-.058.103.183.183 0 0 1-.119.036h-.423l1.603-3.831h.557l1.622 3.816zm-2.654-1.423h1.513l-.64-1.56a2.964 2.964 0 0 1-.12-.36l-.06.203-.058.16-.635 1.557zm5.417 1.047c.1.005.2.005.3 0 .088-.009.173-.024.257-.046a1.82 1.82 0 0 0 .231-.07c.07-.027.141-.06.215-.094v-.861h-.641a.12.12 0 0 1-.087-.03.087.087 0 0 1-.032-.07v-.295h1.244v1.469a2.355 2.355 0 0 1-.676.312 2.655 2.655 0 0 1-.401.08 4.459 4.459 0 0 1-.468.024 2.252 2.252 0 0 1-.808-.143 1.937 1.937 0 0 1-.64-.4 1.849 1.849 0 0 1-.414-.607 2.076 2.076 0 0 1-.147-.795 2.155 2.155 0 0 1 .144-.801c.092-.228.233-.434.413-.607.183-.173.401-.308.641-.398.275-.098.566-.146.859-.143.15 0 .298.011.446.034.13.02.258.053.38.097.113.04.22.09.321.152.099.06.192.127.28.2l-.155.237a.14.14 0 0 1-.052.052.15.15 0 0 1-.073.02.196.196 0 0 1-.099-.03 1.923 1.923 0 0 1-.157-.09 1.372 1.372 0 0 0-.215-.104 1.873 1.873 0 0 0-.295-.085 2.255 2.255 0 0 0-.407-.033 1.743 1.743 0 0 0-.618.106 1.337 1.337 0 0 0-.471.303c-.133.138-.235.3-.298.477a1.954 1.954 0 0 0 0 1.277c.07.18.179.345.32.483.132.131.291.234.468.303.204.066.42.092.635.076zm5.108-.061h1.75v.437H99.65v-3.832h.548l-.013 3.395zm3.571.436h-.548v-3.83h.548v3.832zm2.038-3.813a.27.27 0 0 1 .083.07l2.343 2.889a1.036 1.036 0 0 1 0-.137v-2.855h.478v3.847h-.276a.242.242 0 0 1-.119-.021.318.318 0 0 1-.086-.073l-2.34-2.885v2.979h-.458V47.62h.285a.23.23 0 0 1 .09.018zm6.938-.018v.422h-1.942v1.265h1.574v.406h-1.574v1.308h1.942v.422h-2.506v-3.823h2.506zM55.303 23.954l24.335 6.541v22.922L55.303 46.88V23.954zM53.743 22v25.992l27.453 7.382v-25.99L53.743 22z"
      fill="#AFB1B8"></path>
    <path d="M68.457 67.44L41 60.052v-25.99l27.457 7.385V67.44z" fill="#AFB1B8"></path>
    <path d="M54.198 23.66l24.018 6.459L68 39.79l-24.02-6.462 10.217-9.67zM53.743 22L41 34.063l27.457 7.385 12.739-12.063L53.743 22zm16.258 43.978l11.195-10.6-11.195-3.013v13.613z" fill="#AFB1B8"></path>
  </symbol>
  <symbol viewBox="0 0 16 12" fill="none" xmlns="http://www.w3.org/2000/svg" id="envelope">
    <path d="M14.5 0h-13C.673 0 0 .628 0 1.4v8.402c0 .772.673 1.4 1.5 1.4h13c.827 0 1.5-.628 1.5-1.4V1.4c0-.772-.673-1.4-1.5-1.4zm0 .933a.53.53 0 0 1 .192.037L8 6.384 1.308.97A.529.529 0 0 1 1.5.933h13zm0 9.335h-13c-.276 0-.5-.209-.5-.466V1.956l6.672 5.398A.52.52 0 0 0 8 7.468a.52.52 0 0 0 .328-.114L15 1.956v7.846c0 .257-.224.466-.5.466z"
      fill="#757575"></path>
  </symbol>
  <symbol viewBox="0 0 44 44" fill="none" xmlns="http://www.w3.org/2000/svg" id="facebook">
    <path d="M44 22a21.931 21.931 0 0 1-6.444 15.556A21.931 21.931 0 0 1 22 44a21.931 21.931 0 0 1-15.556-6.444A21.931 21.931 0 0 1 0 22 21.931 21.931 0 0 1 6.444 6.444 21.931 21.931 0 0 1 22 0a21.931 21.931 0 0 1 15.556 6.444A21.931 21.931 0 0 1 44 22z"
      fill="#fff"></path>
    <g clip-path="url(#clip0)">
      <path d="M25.33 15.32h1.827v-3.18a23.588 23.588 0 0 0-2.66-.14c-2.633 0-4.436 1.656-4.436 4.7v2.8h-2.905v3.555h2.905V32h3.561v-8.944h2.788l.442-3.555h-3.23v-2.45c0-1.027.277-1.73 1.709-1.73z" fill="#AFB1B8"></path>
    </g>
    <defs>
      <clipPath id="clip0">
        <path fill="#fff" transform="translate(12 12)" d="M0 0h20v20H0z"></path>
      </clipPath>
    </defs>
  </symbol>
  <symbol viewBox="0 0 20 20" fill="none" xmlns="http://www.w3.org/2000/svg" id="facebook_white">
    <g clip-path="url(#clip0)">
      <path d="M13.33 3.32h1.827V.14a23.576 23.576 0 0 0-2.66-.14C9.864 0 8.06 1.656 8.06 4.7v2.8H5.156v3.555H8.06V20h3.561v-8.944h2.788l.442-3.555h-3.23V5.05c0-1.027.277-1.73 1.709-1.73z" fill="#fff"></path>
    </g>
    <defs>
      <clipPath id="clip0">
        <path fill="#fff" d="M0 0h20v20H0z"></path>
      </clipPath>
    </defs>
  </symbol>
  <symbol viewBox="0 0 44 44" fill="none" xmlns="http://www.w3.org/2000/svg" id="instagram">
    <path d="M44 22a21.931 21.931 0 0 1-6.444 15.556A21.931 21.931 0 0 1 22 44a21.931 21.931 0 0 1-15.556-6.444A21.931 21.931 0 0 1 0 22 21.931 21.931 0 0 1 6.444 6.444 21.931 21.931 0 0 1 22 0a21.931 21.931 0 0 1 15.556 6.444A21.931 21.931 0 0 1 44 22z"
      fill="#fff"></path>
    <g clip-path="url(#clip0)" fill="#AFB1B8">
      <path d="M31.98 17.88c-.046-1.063-.218-1.793-.464-2.426a4.881 4.881 0 0 0-1.157-1.774 4.922 4.922 0 0 0-1.77-1.153c-.637-.246-1.363-.418-2.426-.464-1.07-.051-1.41-.063-4.126-.063-2.715 0-3.055.012-4.122.059-1.063.046-1.793.219-2.426.465a4.879 4.879 0 0 0-1.774 1.156 4.923 4.923 0 0 0-1.152 1.77c-.247.637-.418 1.363-.465 2.426-.051 1.07-.063 1.41-.063 4.126 0 2.715.012 3.055.059 4.122.047 1.063.219 1.793.465 2.426a4.932 4.932 0 0 0 1.156 1.774 4.92 4.92 0 0 0 1.77 1.152c.637.247 1.364.419 2.426.465 1.067.047 1.407.059 4.122.059 2.716 0 3.055-.012 4.122-.059 1.063-.046 1.793-.218 2.426-.464a5.116 5.116 0 0 0 2.927-2.927c.246-.637.418-1.364.465-2.426.047-1.067.058-1.407.058-4.122s-.004-3.055-.05-4.122zm-1.8 8.166c-.044.977-.208 1.504-.344 1.855a3.318 3.318 0 0 1-1.9 1.9c-.35.136-.882.3-1.855.343-1.055.047-1.371.059-4.04.059-2.668 0-2.989-.012-4.04-.059-.977-.043-1.504-.207-1.856-.344a3.076 3.076 0 0 1-1.148-.746 3.109 3.109 0 0 1-.747-1.148c-.136-.352-.3-.883-.343-1.856-.047-1.055-.059-1.372-.059-4.04 0-2.669.012-2.99.059-4.04.043-.977.207-1.504.343-1.856a3.04 3.04 0 0 1 .75-1.149 3.104 3.104 0 0 1 1.15-.746c.35-.136.882-.3 1.855-.344 1.055-.046 1.372-.058 4.04-.058 2.672 0 2.989.011 4.04.058.977.043 1.504.207 1.856.344.433.16.828.414 1.148.746.332.325.586.715.747 1.15.136.35.3.882.343 1.855.047 1.055.059 1.371.059 4.04 0 2.668-.012 2.98-.059 4.036z"></path>
      <path d="M22.037 16.864a5.139 5.139 0 1 0 5.138 5.138 5.139 5.139 0 0 0-5.138-5.138zm0 8.47a3.333 3.333 0 1 1 .001-6.666 3.333 3.333 0 0 1 0 6.667zm6.541-8.673a1.2 1.2 0 1 1-2.4 0 1.2 1.2 0 0 1 2.4 0z"></path>
    </g>
    <defs>
      <clipPath id="clip0">
        <path fill="#fff" transform="translate(12 12)" d="M0 0h20v20H0z"></path>
      </clipPath>
    </defs>
  </symbol>
  <symbol viewBox="0 0 20 20" fill="none" xmlns="http://www.w3.org/2000/svg" id="instagram_white">
    <g clip-path="url(#clip0)" fill="#fff">
      <path d="M19.98 5.88c-.046-1.063-.218-1.793-.464-2.426a4.88 4.88 0 0 0-1.157-1.774 4.922 4.922 0 0 0-1.77-1.153C15.952.281 15.226.11 14.163.063 13.093.012 12.753 0 10.037 0 7.322 0 6.982.012 5.915.059 4.853.105 4.122.277 3.49.523A4.88 4.88 0 0 0 1.715 1.68 4.924 4.924 0 0 0 .563 3.45C.316 4.087.145 4.813.098 5.876c-.051 1.07-.063 1.41-.063 4.126 0 2.715.012 3.055.059 4.122.047 1.063.219 1.793.465 2.426a4.932 4.932 0 0 0 1.156 1.774 4.92 4.92 0 0 0 1.77 1.152c.637.247 1.364.419 2.426.465 1.067.047 1.407.059 4.122.059 2.716 0 3.056-.012 4.122-.059 1.063-.046 1.793-.218 2.426-.464a5.116 5.116 0 0 0 2.927-2.927c.246-.637.418-1.364.465-2.426.047-1.067.058-1.407.058-4.122s-.004-3.055-.05-4.122zm-1.8 8.166c-.044.977-.208 1.504-.344 1.856a3.318 3.318 0 0 1-1.9 1.898c-.35.137-.882.301-1.855.344-1.055.047-1.371.059-4.04.059-2.668 0-2.989-.012-4.04-.059-.977-.043-1.504-.207-1.856-.344a3.077 3.077 0 0 1-1.148-.746 3.11 3.11 0 0 1-.747-1.148c-.136-.352-.3-.883-.343-1.856-.047-1.055-.059-1.372-.059-4.04 0-2.669.012-2.99.059-4.04.043-.977.207-1.504.343-1.856A3.04 3.04 0 0 1 3 2.965a3.105 3.105 0 0 1 1.15-.746c.35-.137.882-.3 1.855-.344 1.055-.046 1.372-.058 4.04-.058 2.672 0 2.989.012 4.04.058.977.043 1.504.207 1.856.344.433.16.828.414 1.148.746.332.325.586.715.747 1.15.136.35.3.882.343 1.855.047 1.055.059 1.371.059 4.04 0 2.668-.012 2.98-.059 4.036z"></path>
      <path d="M10.037 4.864A5.139 5.139 0 0 0 4.9 10.002a5.139 5.139 0 1 0 5.138-5.138zm0 8.47a3.333 3.333 0 1 1 .001-6.666 3.333 3.333 0 0 1 0 6.667zm6.541-8.673a1.2 1.2 0 1 1-2.4 0 1.2 1.2 0 0 1 2.4 0z"></path>
    </g>
    <defs>
      <clipPath id="clip0">
        <path fill="#fff" d="M0 0h20v20H0z"></path>
      </clipPath>
    </defs>
  </symbol>
  <symbol viewBox="0 0 44 44" fill="none" xmlns="http://www.w3.org/2000/svg" id="linkedin">
    <path d="M44 22a21.931 21.931 0 0 1-6.444 15.556A21.931 21.931 0 0 1 22 44a21.931 21.931 0 0 1-15.556-6.444A21.931 21.931 0 0 1 0 22 21.931 21.931 0 0 1 6.444 6.444 21.931 21.931 0 0 1 22 0a21.931 21.931 0 0 1 15.556 6.444A21.931 21.931 0 0 1 44 22z"
      fill="#fff"></path>
    <g clip-path="url(#clip0)" fill="#AFB1B8">
      <path d="M31.995 32H32v-7.336c0-3.588-.772-6.352-4.967-6.352-2.017 0-3.37 1.106-3.923 2.155h-.058v-1.82h-3.978v13.352h4.142v-6.611c0-1.741.33-3.425 2.486-3.425 2.124 0 2.156 1.987 2.156 3.536V32h4.137zM12.33 18.648h4.147V32H12.33V18.648zM14.402 12A2.402 2.402 0 0 0 12 14.402c0 1.325 1.076 2.424 2.402 2.424 1.325 0 2.401-1.099 2.401-2.424A2.403 2.403 0 0 0 14.402 12z"></path>
    </g>
    <defs>
      <clipPath id="clip0">
        <path fill="#fff" transform="translate(12 12)" d="M0 0h20v20H0z"></path>
      </clipPath>
    </defs>
  </symbol>
  <symbol viewBox="0 0 20 20" fill="none" xmlns="http://www.w3.org/2000/svg" id="linkedin_white">
    <g clip-path="url(#clip0)" fill="#fff">
      <path d="M19.995 20H20v-7.336c0-3.588-.772-6.352-4.967-6.352-2.017 0-3.37 1.106-3.923 2.156h-.058V6.647H7.074v13.352h4.142v-6.611c0-1.741.33-3.425 2.486-3.425 2.124 0 2.156 1.987 2.156 3.536V20h4.137zM.33 6.647h4.147V20H.33V6.647zM2.402 0A2.402 2.402 0 0 0 0 2.402c0 1.325 1.076 2.424 2.402 2.424 1.325 0 2.401-1.098 2.401-2.424A2.403 2.403 0 0 0 2.402 0z"></path>
    </g>
    <defs>
      <clipPath id="clip0">
        <path fill="#fff" d="M0 0h20v20H0z"></path>
      </clipPath>
    </defs>
  </symbol>
  <symbol viewBox="0 0 10 15" fill="none" xmlns="http://www.w3.org/2000/svg" id="smartphone">
    <path d="M8.5 0h-7C.673 0 0 .628 0 1.4v12.136c0 .772.673 1.4 1.5 1.4h7c.827 0 1.5-.628 1.5-1.4V1.4C10 .628 9.327 0 8.5 0zm-7 .933h7c.276 0 .5.21.5.467v9.802H1V1.4c0-.257.224-.467.5-.467zm7 13.07h-7c-.276 0-.5-.21-.5-.467v-1.4h8v1.4c0 .257-.224.466-.5.466z"
      fill="#757575"></path>
    <path d="M2.354 12.739a.445.445 0 0 1 0 .66.525.525 0 0 1-.708 0 .445.445 0 0 1 0-.66.525.525 0 0 1 .708 0z" fill="#757575"></path>
  </symbol>
  <symbol viewBox="0 0 44 44" fill="none" xmlns="http://www.w3.org/2000/svg" id="twitter">
    <path d="M44 22a21.931 21.931 0 0 1-6.444 15.556A21.931 21.931 0 0 1 22 44a21.931 21.931 0 0 1-15.556-6.444A21.931 21.931 0 0 1 0 22 21.931 21.931 0 0 1 6.444 6.444 21.931 21.931 0 0 1 22 0a21.931 21.931 0 0 1 15.556 6.444A21.931 21.931 0 0 1 44 22z"
      fill="#fff"></path>
    <g clip-path="url(#clip0)">
      <path d="M32 15.799a8.55 8.55 0 0 1-2.363.647 4.076 4.076 0 0 0 1.804-2.266 8.191 8.191 0 0 1-2.6.992 4.099 4.099 0 0 0-7.093 2.804c0 .325.028.638.096.935-3.409-.166-6.425-1.8-8.452-4.289a4.128 4.128 0 0 0-.56 2.073c0 1.42.73 2.679 1.82 3.407a4.048 4.048 0 0 1-1.852-.505v.045a4.119 4.119 0 0 0 3.285 4.03 4.09 4.09 0 0 1-1.075.134 3.62 3.62 0 0 1-.776-.07c.531 1.624 2.039 2.818 3.831 2.857a8.238 8.238 0 0 1-5.084 1.748 7.67 7.67 0 0 1-.981-.056 11.543 11.543 0 0 0 6.29 1.84c7.545 0 11.67-6.25 11.67-11.668 0-.18-.006-.356-.015-.53A8.179 8.179 0 0 0 32 15.8z"
        fill="#AFB1B8"></path>
    </g>
    <defs>
      <clipPath id="clip0">
        <path fill="#fff" transform="translate(12 12)" d="M0 0h20v20H0z"></path>
      </clipPath>
    </defs>
  </symbol>
  <symbol viewBox="0 0 20 20" fill="none" xmlns="http://www.w3.org/2000/svg" id="twitter_white">
    <g clip-path="url(#clip0)">
      <path d="M20 3.799a8.549 8.549 0 0 1-2.363.647 4.077 4.077 0 0 0 1.804-2.266 8.192 8.192 0 0 1-2.6.992A4.099 4.099 0 0 0 9.75 5.976c0 .325.027.638.095.935-3.409-.166-6.425-1.8-8.451-4.288A4.128 4.128 0 0 0 .83 4.694c0 1.42.732 2.679 1.821 3.407A4.05 4.05 0 0 1 .8 7.597v.045a4.119 4.119 0 0 0 3.285 4.03 4.09 4.09 0 0 1-1.075.134c-.262 0-.527-.015-.776-.07.531 1.624 2.038 2.818 3.831 2.856a8.238 8.238 0 0 1-5.084 1.75A7.67 7.67 0 0 1 0 16.284a11.543 11.543 0 0 0 6.29 1.84c7.545 0 11.67-6.25 11.67-11.668 0-.18-.006-.356-.015-.53A8.179 8.179 0 0 0 20 3.8z"
        fill="#fff"></path>
    </g>
    <defs>
      <clipPath id="clip0">
        <path fill="#fff" d="M0 0h20v20H0z"></path>
      </clipPath>
    </defs>
  </symbol>
</svg>